<svg xmlns="http://www.w3.org/2000/svg" viewBox="0 0 216.5 178.21"><defs><style>.cls-1{fill:#231815;}</style></defs><title>資產 1</title><g id="圖層_2" data-name="圖層 2"><g id="圖層_1-2" data-name="圖層 1"><path class="cls-1" d="M216.5,16.61a16.61,16.61,0,0,1-16.6,16.61H16.61A16.61,16.61,0,0,1,16.61,0H199.9A16.61,16.61,0,0,1,216.5,16.61Z"/><path class="cls-1" d="M216.5,89.1a16.61,16.61,0,0,1-16.6,16.61H16.61a16.61,16.61,0,0,1,0-33.22H199.9A16.61,16.61,0,0,1,216.5,89.1Z"/><path class="cls-1" d="M216.5,161.6a16.61,16.61,0,0,1-16.6,16.61H16.61a16.61,16.61,0,1,1,0-33.22H199.9A16.61,16.61,0,0,1,216.5,161.6Z"/></g></g></svg>